<?xml version="1.0" encoding="utf-8"?>
<!-- Generator: Adobe Illustrator 22.1.0, SVG Export Plug-In . SVG Version: 6.00 Build 0)  -->
<svg version="1.1" id="Layer_1" xmlns="http://www.w3.org/2000/svg" xmlns:xlink="http://www.w3.org/1999/xlink" x="0px" y="0px"
	 viewBox="0 0 1920 1920" style="enable-background:new 0 0 1920 1920;" xml:space="preserve">
<style type="text/css">
	.st0{fill:#E9E9E9;}
</style>
<g>
	<path class="st0" d="M960,1896c516.7,0,935.5-418.8,935.5-935.5C1895.5,443.8,1476.6,25,960,25C443.3,25,24.4,443.9,24.4,960.5
		C24.4,1477.3,443.3,1896,960,1896z M960,163.4c440.3,0,797.2,356.9,797.2,797.2s-356.9,797.2-797.2,797.2
		c-440.3,0-797.2-356.9-797.2-797.2C162.8,520.3,519.7,163.4,960,163.4z"/>
	<path class="st0" d="M1255.1,297.2c-105.7,0-218.1,74.8-218.1,213.4v380.7H883V583.6c0-38.2-31-69.2-69.2-69.2
		c-38.3,0-69.2,31-69.2,69.2v307.7h-51.9c-38.2,0-69.2,30.9-69.2,69.2c0,38.2,31,69.2,69.2,69.2h51.9v380.8c0,72.9-71.6,75-79.8,75
		c-18,0-76.7-5.4-76.7-75v-105.3c0-38.2-30.9-69.2-69.2-69.2c-38.2,0-69.2,31-69.2,69.2v105.3c0,140.1,108.3,213.4,215.2,213.4
		c105.8,0,218.2-74.9,218.2-213.4v-380.7h154v307.7c0,38.2,30.9,69.2,69.1,69.2c38.3,0,69.2-30.9,69.2-69.2v-307.7h51.8
		c38.2,0,69.2-31,69.2-69.2c0-38.3-31-69.2-69.2-69.2h-51.8V510.6c0-72.9,71.6-75,79.8-75c18,0,76.8,5.4,76.8,75v105.3
		c0,38.2,31,69.2,69.2,69.2s69.2-30.9,69.2-69.2V510.6C1470.3,370.5,1362,297.2,1255.1,297.2z"/>
</g>
</svg>
