<?xml version="1.0" encoding="utf-8"?>
<!-- Generator: Adobe Illustrator 15.1.0, SVG Export Plug-In . SVG Version: 6.00 Build 0)  -->
<!DOCTYPE svg PUBLIC "-//W3C//DTD SVG 1.1//EN" "http://www.w3.org/Graphics/SVG/1.1/DTD/svg11.dtd">
<svg version="1.1" id="_x35_00_x25__Festo" xmlns="http://www.w3.org/2000/svg" xmlns:xlink="http://www.w3.org/1999/xlink" x="0px"
	 y="0px" width="511.189px" height="274px" viewBox="49.904 254.5 511.189 274"
	 style="enable-background:new 49.904 254.5 511.189 274;" xml:space="preserve">
<style type="text/css">
<![CDATA[
	.logo-festo-class-1{fill-rule:evenodd;clip-rule:evenodd;fill:#00ADEF;}
]]>
</style>
<path class="logo-festo-class-1" d="M451.576,433.974c-8.496,0-15.371-6.807-15.371-15.21v-45.649c0-8.408,6.875-15.22,15.371-15.22h51.23
	c8.486,0,15.371,6.812,15.371,15.22v45.64c0,8.413-6.885,15.22-15.371,15.22H451.576 M95.502,433.974
	c-1.416,0-2.568-1.128-2.568-2.529v-71.011c0-1.396,1.152-2.539,2.568-2.539h71.719c1.426,0,2.559,1.143,2.559,2.539v10.142
	c0,1.401-1.133,2.539-2.559,2.539h-51.23c-1.406,0-2.559,1.133-2.559,2.534v10.146c0,1.401,1.152,2.529,2.559,2.529h46.113
	c1.406,0,2.559,1.143,2.559,2.539v10.142c0,1.401-1.152,2.539-2.559,2.539H115.99c-1.406,0-2.559,1.133-2.559,2.544v25.356
	c0,1.401-1.152,2.529-2.559,2.529H95.502z M174.916,360.434c0-1.396,1.152-2.539,2.559-2.539h76.846
	c1.416,0,2.568,1.143,2.568,2.539v10.142c0,1.401-1.152,2.539-2.568,2.539h-56.357c-1.406,0-2.559,1.133-2.559,2.534v10.146
	c0,1.401,1.152,2.529,2.559,2.529h51.24c1.416,0,2.559,1.143,2.559,2.539v10.142c0,1.401-1.143,2.539-2.559,2.539h-51.24
	c-1.406,0-2.559,1.133-2.559,2.544v10.137c0,1.401,1.152,2.539,2.559,2.539l56.357-0.01c1.416,0,2.568,1.143,2.568,2.539v10.151
	c0,1.401-1.152,2.529-2.568,2.529h-76.846c-1.406,0-2.559-1.128-2.559-2.529V360.434z M262.016,388.324
	c0,8.413,6.875,15.22,15.371,15.22h40.977c2.832,0,5.127,2.271,5.127,5.073v5.068c0,2.813-2.295,5.068-5.127,5.068h-33.301
	c-1.406,0-2.559-1.128-2.559-2.529c0-1.396-1.152-2.539-2.559-2.539h-15.371c-1.416,0-2.559,1.143-2.559,2.539v2.529
	c0,8.413,6.875,15.22,15.371,15.22h51.23c8.486,0,15.371-6.807,15.371-15.22v-15.21c0-8.398-6.885-15.22-15.371-15.22h-40.996
	c-2.822,0-5.117-2.271-5.117-5.068v-5.068c0-2.803,2.295-5.073,5.117-5.073h33.301c1.426,0,2.568,1.133,2.568,2.534
	c0,1.396,1.143,2.539,2.568,2.539h15.361c1.416,0,2.568-1.143,2.568-2.539v-2.534c0-8.408-6.885-15.22-15.371-15.22h-51.23
	c-8.496,0-15.371,6.812-15.371,15.22V388.324z M349.105,360.434c0-1.396,1.152-2.539,2.559-2.539h76.846
	c1.426,0,2.578,1.143,2.578,2.539v10.142c0,1.401-1.152,2.539-2.578,2.539h-25.605c-1.416,0-2.559,1.133-2.559,2.534v55.796
	c0,1.401-1.152,2.529-2.568,2.529h-15.371c-1.416,0-2.559-1.128-2.559-2.529v-55.796c0-1.401-1.152-2.534-2.568-2.534h-25.615
	c-1.406,0-2.559-1.138-2.559-2.539V360.434z M461.82,418.754c-2.822,0-5.127-2.256-5.127-5.068v-35.498
	c0-2.803,2.305-5.073,5.127-5.073h30.742c2.832,0,5.117,2.271,5.117,5.073v35.498c0,2.813-2.285,5.068-5.117,5.068H461.82z"/>
</svg>
