<?xml version="1.0" encoding="utf-8"?>
<!-- Generator: Adobe Illustrator 15.1.0, SVG Export Plug-In . SVG Version: 6.00 Build 0)  -->
<!DOCTYPE svg PUBLIC "-//W3C//DTD SVG 1.1//EN" "http://www.w3.org/Graphics/SVG/1.1/DTD/svg11.dtd">
<svg version="1.1" xmlns="http://www.w3.org/2000/svg" xmlns:xlink="http://www.w3.org/1999/xlink" x="0px" y="0px"
	 width="450.699px" height="274px" viewBox="80.513 254.5 450.699 274" style="enable-background:new 80.513 254.5 450.699 274;"
	 xml:space="preserve">
<style type="text/css">
<![CDATA[
	.logo-eatonWeatherhead-class-1{fill:none;stroke:#8D8D8D;stroke-width:1.75;stroke-miterlimit:10;}
	.logo-eatonWeatherhead-class-2{fill:#8D8D8D;}
	.logo-eatonWeatherhead-class-3{fill:none;}
	.logo-eatonWeatherhead-class-4{display:inline;}
	.logo-eatonWeatherhead-class-5{fill:#007AC1;}
	.logo-eatonWeatherhead-class-6{display:none;}
]]>
</style>
<g id="Eaton_Weatherhead">
	<g>
		<g>
			<path class="logo-eatonWeatherhead-class-5" d="M254.335,335.913l7.138,25.703h-14.794L254.335,335.913z M241.336,379.625l-6.505,21.325h38.02l-6.12-21.325
				H241.336z M340.549,320.5h-72.968v22.898h23.022v57.552h37.052c-2.294-1.41-18.013-13.886-18.013-37.178
				C309.643,344.411,321.388,325.466,340.549,320.5 M353.207,380.349c8.61,0,15.517-7.146,15.517-16.181
				c0-8.97-6.476-17.102-15.206-17.102c-8.762,0-15.656,8.132-15.656,17.102C337.861,373.202,344.336,380.349,353.207,380.349
				 M429.738,371.07l-14.816-50.57h-37.921v80.45h23.686v-50.427h0.167l14.685,50.427h38.245V320.5h-23.896v50.57H429.738z
				 M204.785,400.95l6.835-22.56h-25.373v-6.816h27.455l6.514-21.623h-33.969v-6.553h35.866l6.917-22.898h-70.147v80.45H204.785z"/>
		</g>
		<path class="logo-eatonWeatherhead-class-3" d="M306.334,416.309"/>
		<g>
			<path class="logo-eatonWeatherhead-class-2" d="M181.489,427.402l5.806,26.679l5.006-26.679h6.101l-7.826,34.896h-6.563l-6.08-26.383l-6.101,26.383h-6.563
				l-7.826-34.896h6.121l4.986,26.679l5.806-26.679H181.489z"/>
			<path class="logo-eatonWeatherhead-class-2" d="M219.302,427.402v5.418h-13.506v8.737h12.686v5.421h-12.686v9.9h13.927v5.419h-20.005v-34.896H219.302z"/>
			<path class="logo-eatonWeatherhead-class-2" d="M231.427,427.402h7.825l11.066,34.896h-6.648l-2.314-7.475h-12.454l-2.083,7.475h-6.458L231.427,427.402z
				 M230.396,449.404h9.571l-4.817-16.706L230.396,449.404z"/>
			<path class="logo-eatonWeatherhead-class-2" d="M270.506,427.402v5.418h-9.109v29.478h-6.08V432.82h-9.108v-5.418H270.506z"/>
			<path class="logo-eatonWeatherhead-class-2" d="M278.203,427.402v13.982h12.432v-13.982h6.079v34.896h-6.079v-15.492h-12.432v15.492h-6.079v-34.896H278.203
				z"/>
			<path class="logo-eatonWeatherhead-class-2" d="M319.945,427.402v5.418h-13.507v8.737h12.686v5.421h-12.686v9.9h13.929v5.419h-20.006v-34.896H319.945z"/>
			<path class="logo-eatonWeatherhead-class-2" d="M330.807,427.402h2.523c3.03,0.016,5.203,0.247,6.522,0.692c2.412,0.841,4.032,2.441,4.859,4.801
				c0.394,1.122,0.589,2.302,0.589,3.54c-0.014,2.326-0.603,4.223-1.77,5.691c-0.895,1.139-2.438,2.047-4.624,2.724
				c2.777,0.444,4.422,1.863,4.941,4.256c0.267,1.205,0.499,2.599,0.696,4.183c0.223,2.146,0.455,3.984,0.692,5.519
				c0.141,1.008,0.33,1.841,0.566,2.5l0.401,0.99h-6.541l-0.253-0.99c-0.239-1.188-0.472-2.978-0.696-5.371
				c-0.35-3.959-0.911-6.285-1.683-6.979c-0.562-0.494-1.541-0.775-2.943-0.841l-2.188-0.024h-3.112v14.206h-6.08v-34.896H330.807z
				 M328.788,442.672h3.679l1.392-0.098c3.562-0.314,5.349-2.005,5.362-5.075c0-0.511-0.061-0.997-0.188-1.46
				c-0.576-2.145-2.329-3.219-5.26-3.219h-2.022h-2.963V442.672z"/>
			<path class="logo-eatonWeatherhead-class-2" d="M354.209,427.402v13.982h12.434v-13.982h6.08v34.896h-6.08v-15.492h-12.434v15.492h-6.078v-34.896H354.209z"
				/>
			<path class="logo-eatonWeatherhead-class-2" d="M395.956,427.402v5.418h-13.505v8.737h12.686v5.421h-12.686v9.9h13.929v5.419h-20.009v-34.896H395.956z"/>
			<path class="logo-eatonWeatherhead-class-2" d="M408.08,427.402h7.824l11.064,34.896h-6.646l-2.312-7.475h-12.456l-2.081,7.475h-6.459L408.08,427.402z
				 M407.05,449.404h9.569l-4.815-16.706L407.05,449.404z"/>
			<path class="logo-eatonWeatherhead-class-2" d="M434.584,427.402h3.913c2.146,0.032,4.086,0.222,5.826,0.568c3.31,0.66,5.851,2.689,7.615,6.088
				c1.528,2.954,2.294,6.525,2.294,10.718c0,11.219-5.104,17.035-15.314,17.447l-4.605,0.074h-5.977v-34.896H434.584z
				 M434.417,456.879h3.932c1.208,0.016,2.343-0.116,3.41-0.397c4.233-1.022,6.365-4.875,6.396-11.559
				c0-1.516-0.145-2.993-0.425-4.429c-0.361-1.832-0.967-3.309-1.809-4.431c-1.414-1.864-3.443-2.912-6.077-3.143
				c-0.743-0.067-1.606-0.101-2.587-0.101h-2.841V456.879z"/>
		</g>
		<line class="logo-eatonWeatherhead-class-1" x1="158.876" y1="412.935" x2="453.789" y2="412.935"/>
	</g>
</g>
<g id="Eaton" class="logo-eatonWeatherhead-class-6">
	<g class="logo-eatonWeatherhead-class-4">
		<path class="logo-eatonWeatherhead-class-5" d="M245.061,362.543l8.343,30.043h-17.291L245.061,362.543z M229.866,413.632l-7.6,24.929h44.436l-7.154-24.929
			H229.866z M345.824,344.53h-85.282v26.763h26.906v67.268h43.313c-2.686-1.65-21.057-16.229-21.057-43.451
			C309.705,372.477,323.427,350.336,345.824,344.53 M360.621,414.481c10.063,0,18.129-8.354,18.129-18.91
			c0-10.487-7.568-19.99-17.769-19.99c-10.243,0-18.3,9.503-18.3,19.99C342.682,406.128,350.25,414.481,360.621,414.481
			 M450.061,403.639l-17.313-59.108h-44.316v94.03h27.683v-58.94h0.191l17.163,58.94h44.699v-94.03H450.24v59.108H450.061z
			 M187.149,438.561l7.988-26.372h-29.655v-7.961h32.088l7.616-25.273h-39.704v-7.661h41.92l8.083-26.763H133.5v94.03H187.149z"/>
	</g>
</g>
</svg>
