<?xml version="1.0" encoding="utf-8"?>
<!-- Generator: Adobe Illustrator 15.1.0, SVG Export Plug-In . SVG Version: 6.00 Build 0)  -->
<!DOCTYPE svg PUBLIC "-//W3C//DTD SVG 1.1//EN" "http://www.w3.org/Graphics/SVG/1.1/DTD/svg11.dtd">
<svg version="1.1" id="Rexroth_75_x25_" xmlns="http://www.w3.org/2000/svg" xmlns:xlink="http://www.w3.org/1999/xlink" x="0px"
	 y="0px" width="612px" height="274px" viewBox="0 254.5 612 274" style="enable-background:new 0 254.5 612 274;"
	 xml:space="preserve">
<style type="text/css">
<![CDATA[
	.logo-rexroth-class-1{fill:#E00024;}
	.logo-rexroth-class-2{fill:#829FB1;}
]]>
</style>
<path class="logo-rexroth-class-1" d="M145.43,318.365c0.765,0.153,1.454,0.306,2.218,0.459c4.59,0.688,8.951,2.065,12.699,4.82
	c4.896,3.519,7.727,8.338,8.568,14.305c0.612,4.667,0.382,9.41-0.918,14c-1.607,5.661-5.125,9.563-10.404,12.087
	c-1.224,0.612-2.524,1.071-3.901,1.606c6.12,10.481,12.163,20.961,18.283,31.671c-0.535,0-0.918,0-1.3,0c-6.273,0-12.47,0-18.743,0
	c-0.842,0-1.224-0.307-1.606-0.995c-4.819-9.256-9.715-18.513-14.612-27.769c-0.077-0.229-0.229-0.382-0.306-0.536
	c-3.902,0-7.803,0-11.705,0c0,9.792,0,19.508,0,29.3c-5.891,0-11.781,0-17.595,0c0-26.24,0-52.556,0-78.795
	C119.19,318.365,132.349,318.365,145.43,318.365z M123.704,354.167c0.306,0,0.459,0,0.612,0c4.896,0,9.868,0.077,14.764,0
	c1.913,0,3.901-0.23,5.814-0.688c3.442-0.688,5.814-2.754,6.502-6.35c0.536-2.448,0.459-4.973-0.229-7.344
	c-0.918-3.136-2.831-5.278-5.967-6.426c-1.606-0.612-3.289-0.842-4.972-0.842c-5.202,0-10.48,0-15.683,0
	c-0.229,0.077-0.536,0.077-0.841,0.077C123.704,339.862,123.704,346.977,123.704,354.167z"/>
<path class="logo-rexroth-class-1" d="M464.588,318.365c0,1.53,0,3.061,0,4.59c0,7.574,0,15.224,0,22.797c0,0.383,0,0.765,0,1.148
	c0.076,0,0.152,0,0.152,0c0.384-0.536,0.689-1.148,1.072-1.683c3.748-5.661,9.104-8.262,15.835-8.491
	c2.983-0.077,5.967,0.306,8.722,1.53c4.207,1.913,6.961,5.202,8.567,9.41c1.3,3.366,1.836,6.885,1.836,10.48
	c0,12.622,0,25.321,0,37.944c0,0.306,0,0.612,0,0.917c-5.661,0-11.245,0-16.983,0c0-0.382,0-0.841,0-1.224
	c0-11.398,0-22.797,0-34.195c0-1.836-0.229-3.749-0.688-5.585c-1.071-4.513-4.284-6.12-8.568-5.813
	c-4.896,0.306-7.65,3.366-9.256,7.727c-0.537,1.53-0.766,3.137-0.766,4.743c0,11.016,0,21.956,0,32.972c0,0.382,0,0.841,0,1.3
	c-5.661,0-11.246,0-16.982,0c0-0.382,0-0.841,0-1.224c0-25.475,0-50.949,0-76.424c0-0.382,0.076-0.765,0.076-1.147
	C453.266,318.365,458.927,318.365,464.588,318.365z"/>
<path class="logo-rexroth-class-2" d="M106.109,416.82c7.038,0,14,0,21.038,0c2.448,0,4.896,0.307,7.191,1.072c4.896,1.683,7.497,5.201,7.65,10.403
	c0.077,1.377-0.077,2.83-0.383,4.207c-0.459,2.372-1.989,4.055-4.054,5.355c-0.536,0.306-1.071,0.612-1.76,1.071
	c0.383,0.152,0.688,0.306,0.995,0.459c1.989,0.841,3.749,1.912,5.049,3.672c1.759,2.447,2.065,5.278,1.913,8.186
	c-0.153,2.143-0.688,4.131-1.836,5.967c-1.606,2.524-3.978,3.901-6.732,4.819c-1.989,0.612-3.978,0.995-6.12,0.919
	c-7.65,0-15.3,0-22.95,0C106.109,447.574,106.109,432.197,106.109,416.82z M116.36,454.918c0.153,0.076,0.153,0.152,0.229,0.152
	c3.825,0,7.65,0.153,11.475-0.076c2.601-0.076,4.667-1.453,5.202-4.283c0.229-1.071,0.229-2.219,0-3.367
	c-0.383-2.218-1.836-3.518-3.978-4.055c-1.071-0.229-2.218-0.382-3.366-0.382c-2.907-0.076-5.891,0-8.797,0
	c-0.306,0-0.536,0.077-0.841,0.077C116.36,446.962,116.36,450.939,116.36,454.918z M116.36,424.701c0,3.748,0,7.19,0,10.633
	c0.153,0,0.306,0.076,0.383,0.076c3.519,0,7.038,0.077,10.557,0c2.371,0,3.978-1.3,4.437-3.519c0.153-0.766,0.153-1.606,0.076-2.372
	c-0.076-2.601-1.606-4.36-4.131-4.514C124.01,424.777,120.185,424.777,116.36,424.701z"/>
<path class="logo-rexroth-class-1" d="M366.821,336.878c8.95,0.077,15.988,2.678,21.726,8.492c4.131,4.131,6.579,9.18,7.727,14.917
	c1.529,7.573,0.918,14.994-2.371,22.032c-4.055,8.568-10.787,13.693-19.967,15.606c-6.197,1.3-12.316,0.918-18.207-1.377
	c-8.568-3.366-14.076-9.563-16.678-18.36c-2.294-7.88-2.064-15.835,1.148-23.409c4.055-9.868,11.552-15.606,22.031-17.365
	C363.99,337.031,365.903,336.955,366.821,336.878z M354.964,367.631c0.076,1.607,0.152,3.136,0.382,4.743
	c0.153,1.071,0.383,2.142,0.612,3.213c0.688,2.601,1.836,4.896,3.825,6.809c4.207,3.978,13.923,4.208,17.671-3.366
	c1.301-2.677,1.913-5.431,2.143-8.338c0.306-4.208,0.153-8.338-1.224-12.393c-1.684-4.896-5.126-7.65-9.945-7.956
	c-5.661-0.306-9.792,2.295-11.857,7.65C355.346,361.129,354.964,364.342,354.964,367.631z"/>
<path class="logo-rexroth-class-1" d="M230.345,385.15c-1.377,2.372-2.983,4.36-4.896,6.12c-4.819,4.437-10.558,6.579-17.06,7.114
	c-5.049,0.46-10.021,0-14.765-1.683c-9.792-3.595-15.683-10.557-17.901-20.655c-1.683-7.65-1.071-15.224,2.142-22.415
	c4.36-9.563,11.857-15.147,22.338-16.524c5.125-0.688,10.175-0.23,14.994,1.606c6.732,2.601,11.169,7.497,13.77,14.153
	c1.76,4.36,2.372,9.027,2.448,13.693c0.077,1.759,0,3.595,0,5.508c-13.311,0-26.469,0-39.704,0
	c0.153,5.737,3.519,10.633,7.956,12.47c2.065,0.841,4.284,0.994,6.502,0.917c2.295-0.077,4.437-0.612,6.35-1.989
	c1.836-1.3,3.136-3.06,4.437-4.973C221.471,380.713,225.832,382.932,230.345,385.15z M215.274,361.588
	c-0.306-2.601-0.765-4.973-1.989-7.191s-2.983-3.672-5.432-4.284c-2.525-0.689-5.049-0.689-7.574,0.076
	c-4.437,1.301-8.109,6.426-8.185,11.475C199.745,361.588,207.395,361.588,215.274,361.588z"/>
<path class="logo-rexroth-class-1" d="M262.857,355.009c1.224-1.989,2.295-3.749,3.366-5.508c2.142-3.442,4.284-6.885,6.35-10.404
	c0.306-0.535,0.612-0.841,1.3-0.841c5.355,0,10.787,0,16.141,0c0.153,0,0.307,0,0.612,0.077c-6.35,9.18-12.546,18.283-18.819,27.463
	c6.885,10.404,13.77,20.808,20.808,31.365c-0.383,0-0.612,0.077-0.842,0.077c-6.043,0-12.087,0-18.207,0
	c-0.688,0-1.071-0.23-1.377-0.842c-3.519-5.738-7.038-11.398-10.48-17.06c-0.153-0.229-0.306-0.535-0.535-0.842
	c-0.306,0.383-0.536,0.765-0.765,1.071c-3.519,5.584-7.115,11.169-10.634,16.753c-0.382,0.612-0.765,0.919-1.606,0.919
	c-5.202-0.077-10.404,0-15.606,0c-0.229,0-0.536,0-0.994,0c6.809-10.099,13.464-20.043,20.195-30.065
	c-6.272-9.563-12.469-19.125-18.895-28.84c0.535,0,0.841,0,1.147,0c5.738,0,11.551,0,17.289,0c0.841,0,1.377,0.229,1.759,0.994
	c2.984,4.896,5.967,9.716,8.95,14.611C262.322,354.244,262.552,354.55,262.857,355.009z"/>
<path class="logo-rexroth-class-1" d="M408.131,351.796c-2.678,0-5.278,0-7.879,0c0-4.437,0-8.874,0-13.388c2.524,0,5.125,0,7.803,0
	c0-3.978,0-7.879,0-11.857c5.661-1.989,11.322-3.978,17.059-6.043c0,5.967,0,11.858,0,17.748c4.132,0,8.109,0,12.164,0
	c0,4.514,0,8.95,0,13.464c-4.055,0-8.032,0-12.087,0c0,0.459,0,0.841,0,1.224c0,8.338,0,16.601,0,24.939
	c0,0.536,0,1.071,0.076,1.607c0.23,2.677,1.607,4.131,4.284,4.284c2.065,0.153,4.132,0.153,6.197,0.306c0.382,0,0.765,0,1.146,0
	c0,4.361,0,8.568,0,12.852c-1.377,0.153-2.754,0.307-4.131,0.383c-2.447,0.077-4.896,0.229-7.344,0.229
	c-3.824-0.076-7.497-0.918-10.71-3.213c-3.213-2.295-5.049-5.508-5.891-9.333c-0.382-1.913-0.612-3.902-0.688-5.814
	c-0.076-8.721,0-17.365,0-26.086C408.131,352.714,408.131,352.332,408.131,351.796z"/>
<path class="logo-rexroth-class-1" d="M299.73,338.408c5.661,0,11.246,0,16.83,0c0,3.213,0,6.35,0,9.486c0.076,0,0.076,0.076,0.153,0.076
	c0.152-0.306,0.382-0.612,0.535-0.918c1.224-1.759,2.295-3.672,3.672-5.278c2.524-2.983,5.891-4.208,9.64-4.437
	c1.377-0.077,2.677,0,4.131,0c0,5.584,0,11.092,0,16.753c-0.459-0.077-0.919-0.077-1.301-0.153
	c-2.678-0.229-5.279-0.153-7.804,0.612c-4.896,1.53-7.496,5.049-8.491,9.869c-0.306,1.53-0.459,3.06-0.459,4.59
	c-0.076,8.951,0,17.901,0,26.852c0,0.382,0,0.841,0,1.224c-5.66,0-11.245,0-16.906,0C299.73,377.576,299.73,358.069,299.73,338.408z
	"/>
<path class="logo-rexroth-class-2" d="M357.718,462.874c-1.913,0-3.749,0-5.737,0c-0.612-2.142-1.148-4.284-1.76-6.503
	c-0.842,0.995-1.607,1.912-2.448,2.754c-2.83,2.831-6.272,4.208-10.251,4.438c-3.825,0.229-7.497-0.307-10.939-1.988
	c-5.355-2.602-8.797-6.886-10.557-12.471c-2.219-7.114-1.989-14.152,1.224-20.961c2.983-6.349,8.108-10.25,14.994-11.627
	c4.973-0.995,9.792-0.537,14.458,1.529c4.514,2.065,7.421,5.584,9.334,10.251c-3.138,1.224-6.197,2.448-9.41,3.749
	c-0.152-0.383-0.306-0.842-0.535-1.225c-0.612-1.147-1.147-2.295-1.913-3.289c-2.142-2.754-5.126-3.367-8.338-3.137
	c-1.989,0.153-3.825,0.842-5.355,2.065c-2.065,1.683-3.289,3.901-3.978,6.426c-1.225,4.59-1.301,9.257,0,13.923
	c1.07,3.825,3.289,6.809,7.344,7.804c3.824,0.993,7.573,0.688,10.786-1.989c2.219-1.836,3.137-4.284,3.137-7.268
	c-3.213,0-6.35,0-9.485,0c-0.077-0.383-0.153-0.612-0.153-0.842c0-2.065,0-4.055,0-6.119c0-0.689,0.153-0.919,0.917-0.919
	c6.121,0,12.24,0,18.438,0c0.152,0,0.306,0.077,0.459,0.077C357.718,446.12,357.718,454.459,357.718,462.874z"/>
<path class="logo-rexroth-class-2" d="M470.02,474.578c0-15.07,0-30.141,0-45.211c3.29,0,6.502,0,9.868,0c0,1.529,0,2.982,0,4.743
	c0.46-0.536,0.766-0.919,1.071-1.301c2.754-3.442,6.35-4.819,10.787-4.284c5.278,0.612,8.644,3.748,10.557,8.492
	c1.683,3.978,1.912,8.186,1.453,12.393c-0.382,3.06-1.147,5.967-2.906,8.567c-2.295,3.52-5.585,5.432-9.869,5.661
	c-3.137,0.152-6.043-0.383-8.492-2.524c-0.764-0.688-1.377-1.454-2.064-2.218c-0.153-0.153-0.229-0.307-0.459-0.613
	c0,5.585,0,10.863,0,16.295C476.599,474.578,473.386,474.578,470.02,474.578z M493.812,446.273
	c-0.077-1.224-0.153-2.371-0.384-3.596c-0.305-1.912-0.993-3.672-2.447-5.049c-2.524-2.372-8.492-2.142-10.404,2.678
	c-0.842,2.143-0.994,4.283-0.994,6.502c0,1.912,0.306,3.749,1.147,5.432c1.377,2.754,3.596,3.902,6.962,3.596
	c2.754-0.229,4.437-1.912,5.278-4.438C493.581,449.792,493.812,448.033,493.812,446.273z"/>
<path class="logo-rexroth-class-2" d="M259.797,414.525c3.29,0,6.503,0,9.792,0c0,6.579,0,13.082,0,19.508c1.071-1.377,2.142-2.677,3.519-3.672
	c2.448-1.683,5.202-2.219,8.186-1.912c2.601,0.229,4.82,1.224,6.579,3.289c1.53,1.76,2.218,3.902,2.524,6.12
	c0.229,1.453,0.229,2.983,0.229,4.514c0,6.426,0,12.775,0,19.202c0,0.382,0,0.84,0,1.3c-3.366,0-6.579,0-9.945,0
	c0-0.46,0-0.842,0-1.224c0-6.58,0-13.082,0-19.661c0-0.994-0.23-2.065-0.536-3.06c-0.536-1.684-1.913-2.602-3.672-2.678
	c-0.842,0-1.76-0.076-2.601,0.152c-2.524,0.613-4.131,2.754-4.284,5.661c-0.077,1.989,0,3.901,0,5.892c0,4.59,0,9.103,0,13.693
	c0,0.382,0,0.841,0,1.301c-3.366,0-6.579,0-9.868,0C259.797,446.809,259.797,430.667,259.797,414.525z"/>
<path class="logo-rexroth-class-2" d="M425.42,445.967c-0.153,3.443-0.842,6.732-2.601,9.716c-2.524,4.284-6.273,6.731-11.017,7.65
	c-3.824,0.765-7.649,0.458-11.322-1.147c-3.824-1.684-6.578-4.36-8.108-8.186c-2.448-5.967-2.218-11.857,0.994-17.442
	c2.755-4.819,7.114-7.268,12.546-7.956c3.29-0.459,6.427-0.076,9.486,1.225c5.125,2.219,8.186,6.196,9.486,11.551
	C425.113,442.907,425.19,444.438,425.42,445.967z M415.246,446.044c-0.153-1.225-0.153-2.371-0.383-3.595
	c-0.153-0.842-0.459-1.761-0.842-2.525c-1.225-2.678-3.442-3.825-6.35-3.672c-2.754,0.152-4.666,1.377-5.661,3.901
	c-1.53,3.825-1.453,7.804-0.153,11.628c0.536,1.607,1.607,2.831,3.138,3.52c2.907,1.377,7.649,1.07,9.409-3.979
	C415.016,449.64,415.246,447.804,415.246,446.044z"/>
<path class="logo-rexroth-class-2" d="M183.757,446.044c-0.153,4.973-1.607,9.333-5.126,12.853c-2.983,2.982-6.732,4.437-10.939,4.742
	c-2.754,0.152-5.432-0.076-7.956-1.071c-5.508-2.065-8.874-6.196-10.174-11.856c-0.995-4.284-0.612-8.568,1.224-12.547
	c2.219-4.896,6.043-7.955,11.245-9.18c5.508-1.301,10.557-0.459,15.147,2.983c3.213,2.448,5.049,5.661,5.967,9.563
	C183.45,442.984,183.527,444.514,183.757,446.044z M173.582,445.891c-0.229-1.453-0.306-2.983-0.688-4.437
	c-0.841-3.213-2.907-5.509-6.961-5.202c-2.754,0.152-4.896,1.529-5.814,4.207c-1.301,3.52-1.224,7.115-0.229,10.711
	c0.382,1.3,1.071,2.447,2.065,3.289c2.754,2.447,8.568,2.295,10.557-2.601C173.276,449.945,173.506,447.957,173.582,445.891z"/>
<path class="logo-rexroth-class-2" d="M461.758,462.874c-3.289,0-6.427,0-9.792,0c0-1.53,0-3.061,0-4.591c-0.077,0-0.153-0.076-0.153-0.076
	c-0.459,0.612-0.842,1.147-1.301,1.76c-1.683,2.143-3.978,3.289-6.655,3.596c-1.377,0.152-2.831,0.229-4.284-0.076
	c-4.055-0.766-6.426-3.443-7.497-7.268c-0.459-1.684-0.688-3.52-0.688-5.355c-0.076-6.809,0-13.541,0-20.349
	c0-0.383,0-0.842,0-1.301c3.366,0,6.58,0,9.945,0c0,0.382,0,0.842,0,1.224c0,6.503,0,12.929,0,19.432
	c0,0.994,0.152,1.912,0.383,2.906c0.459,1.913,1.683,2.907,3.672,3.061c3.289,0.229,5.737-1.684,6.273-4.973
	c0.152-0.994,0.229-1.912,0.229-2.906c0-5.814,0-11.629,0-17.366c0-0.382,0-0.842,0-1.301c3.289,0,6.503,0,9.792,0
	C461.758,440.459,461.758,451.628,461.758,462.874z"/>
<path class="logo-rexroth-class-2" d="M187.582,458.743c1.53-2.143,3.06-4.208,4.59-6.35c0.383,0.306,0.688,0.458,0.995,0.688
	c3.442,2.83,7.344,3.748,11.705,2.983c0.612-0.076,1.224-0.383,1.759-0.765c1.76-1.148,1.607-3.596-0.306-4.361
	c-1.147-0.459-2.448-0.688-3.672-0.994c-1.912-0.459-3.901-0.842-5.814-1.377c-1.071-0.306-2.142-0.842-3.137-1.453
	c-2.524-1.454-3.901-3.673-4.284-6.503c-0.459-3.672,0.459-6.886,3.366-9.333c1.606-1.377,3.519-2.142,5.584-2.524
	c4.819-0.918,9.563-0.612,14.152,1.377c1.301,0.535,2.524,1.377,3.901,2.142c-1.606,2.219-3.06,4.208-4.59,6.35
	c-0.536-0.306-0.918-0.611-1.301-0.842c-3.06-1.836-6.349-2.524-9.868-1.836c-1.3,0.23-1.913,0.995-2.065,2.066
	c-0.153,1.224,0.459,2.218,1.836,2.601c1.53,0.459,3.137,0.842,4.667,1.147c2.218,0.459,4.514,0.842,6.579,1.836
	c3.595,1.684,5.584,4.361,5.661,8.492c0.077,2.678-0.535,5.125-2.372,7.19c-1.606,1.836-3.748,2.907-6.043,3.52
	c-1.76,0.535-3.596,0.688-5.432,0.765c-3.29,0.076-6.502-0.153-9.639-1.225C191.483,461.65,189.494,460.426,187.582,458.743z"/>
<path class="logo-rexroth-class-2" d="M253.372,437.399c-2.754,1.301-5.431,2.524-8.186,3.825c-0.382-0.689-0.765-1.377-1.071-2.066
	c-1.683-3.289-4.973-3.518-7.65-2.371c-1.606,0.688-2.524,2.065-3.137,3.672c-0.765,2.143-0.994,4.438-0.841,6.732
	c0.076,1.529,0.229,2.983,0.765,4.437c1.454,3.901,5.814,5.585,9.41,3.596c1.224-0.688,1.913-1.759,2.524-2.907
	c0.229-0.382,0.459-0.842,0.688-1.453c2.601,1.301,5.125,2.525,7.727,3.825c-0.612,1.606-1.53,2.907-2.601,4.131
	c-2.754,3.137-6.35,4.667-10.557,4.896c-2.219,0.153-4.438,0-6.579-0.535c-5.202-1.453-8.874-4.666-10.557-9.868
	c-1.836-5.585-1.607-11.169,1.147-16.447c2.219-4.284,5.891-6.962,10.634-7.956c3.519-0.766,7.038-0.536,10.404,0.841
	C249.241,431.126,251.612,433.88,253.372,437.399z"/>
<path class="logo-rexroth-class-2" d="M365.979,429.29c3.289,0,6.503,0,9.868,0c0,1.76,0,3.443,0,5.126c1.76-2.83,3.749-5.278,7.191-5.814
	c2.219-0.306,4.36-0.076,6.426,1.301c-0.765,2.907-1.606,5.814-2.371,8.721c-1.147-0.306-2.143-0.688-3.213-0.842
	c-3.902-0.535-6.58,1.684-7.497,4.896c-0.307,1.071-0.46,2.219-0.46,3.289c-0.076,5.279,0,10.634,0,15.912
	c0,0.307,0,0.612-0.076,0.919c-3.289,0-6.502,0-9.792,0C365.979,451.705,365.979,440.535,365.979,429.29z"/>
</svg>
