<?xml version="1.0" encoding="utf-8"?>
<!-- Generator: Adobe Illustrator 23.0.1, SVG Export Plug-In . SVG Version: 6.00 Build 0)  -->
<svg version="1.1" id="Layer_1" xmlns="http://www.w3.org/2000/svg" xmlns:xlink="http://www.w3.org/1999/xlink" x="0px" y="0px"
	 viewBox="0 0 600 300" style="enable-background:new 0 0 600 300;" xml:space="preserve">
<style type="text/css">
	.sunhydraulics-1{fill:#FD4F02;}
	.sunhydraulics-2{fill:#28221D;}
</style>
<path class="sunhydraulics-1" d="M190.6,155.6c-0.3,14.6-7,32.3-21.3,46.9c-15.5,15.8-34.5,23.5-56.6,22.8C73,224,40.1,192.1,40,150.1
	c-0.1-41.7,33.7-76.8,78.3-75.4C157.3,76,190.7,108.3,190.6,155.6z M56.2,157.5c7.9,0,15.6,0,23.4,0c0,1.7,0,3.2,0,4.8
	c-7.9,0-15.6,0-23.4,0c0,4.4,0,8.6,0,12.8c0.7,0,1.3,0.1,1.8,0.1c10.9,0,21.7,0,32.6,0c2.2,0,2.3-0.2,2.3-2.4c0-8.8,0-17.7,0-26.5
	c0-0.6-0.1-1.2-0.1-2.1c-7.9,0-15.6,0-23.4,0c0-1.5,0-2.8,0-4.2c7.8,0,15.6,0,23.4,0c0-4.5,0-8.7,0-12.9c-12.3,0-24.4,0-36.7,0
	C56.2,137.1,56.2,147.1,56.2,157.5z M98.2,175.1c12,0,23.8,0,35.7,0c0-15.9,0-31.7,0-47.5c-4.1,0-8,0-12.1,0c0,11.8,0,23.4,0,35.2
	c-3.8,0-7.3,0-11.2,0c0-11.8,0-23.5,0-35.1c-4.3,0-8.3,0-12.4,0C98.2,143.5,98.2,159.2,98.2,175.1z M139.8,127.6c0,16,0,31.7,0,47.5
	c4.1,0,8,0,12.1,0c0-11.8,0-23.4,0-35.1c3.8,0,7.3,0,11.2,0c0,11.8,0,23.4,0,35.1c4.3,0,8.3,0,12.3,0c0-15.9,0-31.6,0-47.4
	C163.5,127.6,151.7,127.6,139.8,127.6z"/>
<path class="sunhydraulics-2" d="M260.6,166.5c3.7,0,7.2,0,11,0c0-11.1,0-22.1,0-33.3c3.5,0,6.7,0,10,0c0,20.2,0,40.3,0,60.5
	c-7.9,0-15.7,0-23.5,0c0-3.3,0-6.4,0-9.8c4.5,0,8.9,0,13.4,0c0-2.8,0-5.3,0-8.1c-7,0-13.9,0-21,0c0-14.3,0-28.3,0-42.5
	c3.3,0,6.6,0,10.1,0C260.6,144.3,260.6,155.4,260.6,166.5z"/>
<path class="sunhydraulics-2" d="M311.9,133.7c0-5.9,0-11.4,0-17c3.1,0,6.1,0,9.2,0c0,19.6,0,39.1,0,58.7c-10.1,0-20.1,0-30.3,0
	c0-13.8,0-27.6,0-41.7C297.7,133.7,304.7,133.7,311.9,133.7z M300.8,142.2c0,8.1,0,16,0,23.9c3.7,0,7.3,0,10.8,0c0-8,0-15.9,0-23.9
	C308,142.2,304.5,142.2,300.8,142.2z"/>
<path class="sunhydraulics-2" d="M209.6,115.2c3.5,0,6.8,0,10.4,0c0,6,0,11.8,0,17.9c7.1,0,13.9,0,20.9,0c0,14.3,0,28.3,0,42.5
	c-3.3,0-6.6,0-10.2,0c0-11.1,0-22.2,0-33.4c-3.6,0-7,0-10.7,0c0,11.1,0,22.2,0,33.4c-3.6,0-6.9,0-10.4,0
	C209.6,155.5,209.6,135.5,209.6,115.2z"/>
<path class="sunhydraulics-2" d="M375.6,148.7c0-2.3,0-4.5,0-6.8c-6.4,0-12.8,0-19.3,0c0-2.9,0-5.5,0-8.3c9.7,0,19.4,0,29.2,0
	c0,14.2,0,28.2,0,42.5c-10.4,0-20.7,0-31.2,0c0-9.1,0-18.1,0-27.4C361.4,148.7,368.5,148.7,375.6,148.7z M375.8,157
	c-3.8,0-7.4,0-11,0c0,3.3,0,6.6,0,9.8c3.8,0,7.3,0,11,0C375.8,163.5,375.8,160.4,375.8,157z"/>
<path class="sunhydraulics-2" d="M502.7,158.2c0-8.4,0-16.6,0-24.9c10.4,0,20.8,0,31.3,0c0,2.9,0,5.9,0,8.9c-7,0-14,0-21.1,0c0,2.1,0,4,0,6.1
	c7,0,13.9,0,21,0c0,9.2,0,18.2,0,27.3c-10.3,0-20.7,0-31.2,0c0-2.9,0-5.7,0-8.8c6.9,0,13.9,0,21,0c0-3,0-5.7,0-8.6
	C516.7,158.2,509.8,158.2,502.7,158.2z"/>
<path class="sunhydraulics-2" d="M422.7,133.2c0,14.2,0,28.3,0,42.5c-10.3,0-20.6,0-31,0c0-14.1,0-28.3,0-42.6c3.3,0,6.7,0,10.3,0
	c0,11.2,0,22.4,0,33.6c3.7,0,7.1,0,10.8,0c0-11.2,0-22.2,0-33.5C416.2,133.2,419.4,133.2,422.7,133.2z"/>
<path class="sunhydraulics-2" d="M469.8,132.9c8.9,0,17.7,0,26.6,0c0,3.2,0,6.2,0,9.5c-5.2,0-10.3,0-15.6,0c0,8,0,15.9,0,24c5.1,0,10.3,0,15.6,0
	c0,3.3,0,6.4,0,9.6c-8.8,0-17.7,0-26.6,0C469.8,161.7,469.8,147.4,469.8,132.9z"/>
<path class="sunhydraulics-2" d="M432.5,115.2c3.4,0,6.6,0,9.8,0c0,20.2,0,40.2,0,60.4c-3.3,0-6.5,0-9.8,0C432.5,155.5,432.5,135.5,432.5,115.2z
	"/>
<path class="sunhydraulics-2" d="M330.5,133.2c6.3,0,12.5,0,18.8,0c0,2.9,0,5.8,0,8.8c-3,0-5.9,0-9.2,0c0,11.3,0,22.4,0,33.6c-3.3,0-6.4,0-9.6,0
	C330.5,161.5,330.5,147.5,330.5,133.2z"/>
<path class="sunhydraulics-2" d="M451.1,133.3c3.4,0,6.7,0,10,0c0,14.1,0,28.1,0,42.3c-3.3,0-6.6,0-10,0C451.1,161.5,451.1,147.5,451.1,133.3z"
	/>
<path class="sunhydraulics-2" d="M535.7,118.9c0-6.9,5.3-12.4,12-12.4c6.8,0,12.2,5.4,12.2,12.2c0,7.1-5.2,12.3-12.3,12.3
	C540.9,131.1,535.8,125.8,535.7,118.9z M537.8,119.1c0,5.5,4.6,9.9,10.1,9.9s9.9-4.6,9.9-10.1c0-5.8-4.4-10.1-10.3-10.1
	C542.1,108.9,537.8,113.4,537.8,119.1z"/>
<path class="sunhydraulics-2" d="M461.1,115c0,3.8,0,7.4,0,11.2c-3.4,0-6.7,0-10.1,0c0-3.8,0-7.4,0-11.2C454.4,115,457.6,115,461.1,115z"/>
<path class="sunhydraulics-2" d="M435,189.8c4.4,0,8.7-0.2,13,0.1c2.3,0.1,3.8,1.5,3.8,2.9c0,2.1-1.7,2.5-3.3,3c-0.1,0-0.2,0.1-0.5,0.3
	c1.1,1.6,2.3,3.1,3.4,4.7c-2.9,0.8-3.9,0.6-5.2-1.7c-1.3-2.3-3-3.3-5.6-2.9c-0.6,0.1-1.2,0-2,0c0,1.7,0,3.1,0,4.7
	c-1.3,0-2.4,0-3.7,0C435,197.3,435,193.6,435,189.8z M438.8,194.5c2.5,0,4.8,0.1,7.2-0.1c0.7-0.1,1.2-1,1.9-1.5
	c-0.5-0.5-1-1.4-1.6-1.5c-2.4-0.3-4.9-0.4-7.4-0.5C438.8,192.4,438.8,193.4,438.8,194.5z"/>
<path class="sunhydraulics-2" d="M386.5,196.1c1.2,1.7,2.3,3.2,3.6,4.9c-1.4,0-2.6,0-4,0c-0.8-1.1-1.7-2.3-2.6-3.6c-0.5-0.8-1.2-1.2-2.1-1.1
	c-1.3,0.1-2.6,0-4.1,0c0,1.6,0,3.1,0,4.7c-1.3,0-2.5,0-3.8,0c0-3.7,0-7.5,0-11.1c4.5,0,8.9,0,13.3,0c0.5,0,1,0.3,1.5,0.5
	c1.1,0.5,2,1.2,2,2.5s-1,2-2.1,2.5C387.8,195.6,387.3,195.8,386.5,196.1z M377.3,194.6c2.4,0,4.7,0.1,6.9-0.1c0.7-0.1,1.4-1,2-1.5
	c-0.6-0.5-1.1-1.4-1.8-1.5c-2.4-0.3-4.7-0.4-7.2-0.5C377.3,192.3,377.3,193.4,377.3,194.6z"/>
<path class="sunhydraulics-2" d="M519.2,189.8c2.5-0.5,4.5-0.3,6.4,1.7c2,2.1,4.2,3.9,6.7,6.1c0-2.8,0-5.2,0-7.8c1.1,0,2,0,3,0
	c0,3.7,0,7.4,0,11.3c-2,0.3-3.8,0.3-5.4-1.4c-2.3-2.3-4.8-4.4-7.6-6.9c0,3,0,5.6,0,8.3c-1.1,0-2,0-3,0
	C519.2,197.4,519.2,193.6,519.2,189.8z"/>
<path class="sunhydraulics-2" d="M506.1,201.2c-2.7,0.1-5.1-0.3-7.1-1.9c-2.8-2.2-2.8-5.8,0.1-7.9c3.4-2.6,10.5-2.7,13.9-0.2
	c3.1,2.2,3.1,6.2-0.1,8.4C510.8,201,508.5,201.3,506.1,201.2z M506.3,191.1c-2,0-3.8,0.3-4.8,2.4c-1.5,3.4,1.1,6.7,5,6.3
	c2.7-0.3,4.1-1.2,4.6-3C511.9,193.4,509.9,191.1,506.3,191.1z"/>
<path class="sunhydraulics-2" d="M360.5,201.5c-1.8-0.3-3.5-0.5-5.1-1c-2.2-0.8-3.9-2.2-4.1-4.8c-0.1-2.3,1.1-4.1,3.6-5.1
	c3.6-1.5,7.2-1.5,10.8-0.2c2.6,1,4,2.9,3.9,5.1c-0.1,2.6-1.8,4.1-4,4.9C364,201,362.2,201.1,360.5,201.5z M360.6,191.1
	c-3,0-4.8,1-5.1,3.3c-0.5,3.6,1.6,5.4,5.2,5.3c1.9-0.1,3.8-0.5,4.5-2.8C366.3,193.6,364.3,191.1,360.6,191.1z"/>
<path class="sunhydraulics-2" d="M422,201.5c-2-0.4-3.8-0.6-5.4-1.2c-2.2-0.8-3.8-2.4-3.9-5c0-2.6,1.6-4,3.7-4.9c3.7-1.5,7.4-1.5,11.1,0
	c2.1,0.9,3.5,2.4,3.5,4.9s-1.4,4-3.5,4.8C425.8,200.9,423.8,201.1,422,201.5z M422,191.1c-2.6,0-4.2,0.8-4.8,2.6
	c-1.2,3.5,1.3,6.5,5.1,6.1c3-0.3,4.4-1.5,4.6-3.7C427.2,192.8,425.5,191.1,422,191.1z"/>
<path class="sunhydraulics-2" d="M472.7,201.1c-1.5,0-2.8,0-4.2,0c-0.6-2.9-2.8-3-5.2-2.7c-0.6,0.1-1.2,0.1-1.7,0c-2.3-0.3-4,0.2-4.6,2.7
	c-1.1,0-2.1,0-3.4,0c1.4-2.2,2.6-4.3,3.9-6.3c0.5-0.8,1.2-1.5,1.4-2.4c1-3.1,3.4-2.9,5.9-2.7c0.4,0,0.8,0.2,1,0.5
	C468.1,193.7,470.4,197.3,472.7,201.1z M462.7,191.5c-1.1,1.8-2.1,3.4-3.2,5.1c2.2,0,4.1,0,6.3,0
	C464.7,194.9,463.8,193.3,462.7,191.5z"/>
<path class="sunhydraulics-2" d="M398.1,196.4c0,1.7,0,3.1,0,4.6c-1.3,0-2.4,0-3.7,0c0-3.7,0-7.4,0-11.2c0.2-0.1,0.5-0.2,0.7-0.2
	c3.5,0,6.9,0,10.4,0.1c1,0,1.9,0.3,2.8,0.7c1.1,0.4,2.2,1.1,2.2,2.6s-1,2.2-2.2,2.6c-1.5,0.4-3,0.7-4.5,0.8
	C402.1,196.5,400.2,196.4,398.1,196.4z M398.2,194.6c2.3,0,4.5,0.1,6.7-0.1c0.6,0,1.1-1,1.7-1.5c-0.6-0.5-1.1-1.5-1.8-1.5
	c-2.2-0.2-4.3-0.1-6.6-0.1C398.2,192.5,398.2,193.5,398.2,194.6z"/>
<path class="sunhydraulics-2" d="M349.1,193.5c-1.2,0-2.3,0-3.3,0c-2.3-2.6-6-3.2-8.1-1.2c-1.6,1.6-1.5,4.8,0.2,6.2c2.2,1.9,6,1.3,8-1.3
	c1,0.1,2.1,0.2,3.2,0.3c-0.4,1.8-1.7,2.5-3.1,3c-2.9,1.1-5.9,1.1-8.8,0.3c-3-0.8-4.7-2.9-4.8-5.4c-0.1-2.4,1.6-4.5,4.6-5.4
	s6-0.9,9,0.2C347.4,190.8,348.7,191.6,349.1,193.5z"/>
<path class="sunhydraulics-2" d="M471.4,191.4c0-0.7,0-1.1,0-1.7c5.1,0,10.2,0,15.4,0c0,0.5,0.1,0.9,0.1,1.6c-1.9,0-3.7,0-5.7,0
	c0,3.3,0,6.5,0,9.7c-1.4,0-2.7,0-4.1,0c0-3.2,0-6.3,0-9.6C475.1,191.4,473.3,191.4,471.4,191.4z"/>
<path class="sunhydraulics-2" d="M489.5,189.7c1.3,0,2.3,0,3.6,0c0,3.8,0,7.5,0,11.4c-1.1,0-2.3,0-3.6,0C489.5,197.3,489.5,193.6,489.5,189.7z"
	/>
<path class="sunhydraulics-2" d="M552.8,125.8c-0.6,0-1.2,0-2,0c-0.2-1-0.5-2.1-0.8-3.1c-0.6-2.3-1.5-2.9-4.2-2.5c0,1.8,0,3.6,0,5.6
	c-0.7,0.1-1.3,0.1-1.9,0.2c0-4.6,0-9,0-13.7c1.9,0,3.8-0.3,5.5,0.1c3,0.5,3.9,3.8,1.8,6.1c-0.3,0.3-0.5,0.6-0.8,0.9
	c0.4,0.8,0.9,1.4,1.2,2.2C552.1,122.8,552.4,124.2,552.8,125.8z M545.9,118.5c1.8,0.2,3.5,0.1,4.3-1.5c0.4-0.7,0.2-2.1-0.3-2.7
	c-1-1.3-2.5-1-4-0.6C545.9,115.4,545.9,116.9,545.9,118.5z"/>
</svg>
